<svg data-v-0dd9719b="" version="1.0" xmlns="http://www.w3.org/2000/svg" xmlns:xlink="http://www.w3.org/1999/xlink" width="100%" height="100%" viewBox="0 0 340.000000 250.000000" preserveAspectRatio="xMidYMid meet" color-interpolation-filters="sRGB" style="margin: auto;"> <rect data-v-0dd9719b="" x="0" y="0" width="100%" height="100%" fill="#fff" fill-opacity="1" class="background"></rect> <rect data-v-0dd9719b="" x="0" y="0" width="100%" height="100%" fill="url(#watermark)" fill-opacity="1" class="watermarklayer"></rect> <g data-v-0dd9719b="" fill="#f29600" class="icon-text-wrapper icon-svg-group iconsvg" transform="translate(48.154998779296875,95.38616371154785)"><g class="iconsvg-imagesvg" transform="translate(0,0)"><g><rect fill="#f29600" fill-opacity="0" stroke-width="2" x="0" y="0" width="60" height="59.22767116796968" class="image-rect"></rect> <svg x="0" y="0" width="60" height="59.22767116796968" filtersec="colorsb2395718823" class="image-svg-svg primary" style="overflow: visible;"><svg version="1.1" id="cube" xmlns="http://www.w3.org/2000/svg" xmlns:xlink="http://www.w3.org/1999/xlink" x="0px" y="0px" viewBox="5.920000076293945 2.4600000381469727 484.6600036621094 478.4200134277344" enable-background="new 0 0 490.58 483.33" xml:space="preserve">
<path fill="#F29600" d="M409.24,222.6l-43.04-74.56c-67.75,4.05-143.94,36.33-210.24,72.97l-51.01,88.33
	C199.96,257.84,312.19,214.03,409.24,222.6z M430.82,348.16c21.27,2.86,41.2,7.99,59.76,15.33l-51.59-89.36
	c-7.71-2.07-15.71-3.7-24.06-4.82c-110.98-14.99-253.47,56.04-356.57,120.78L5.92,480.88H7.7
	C128.08,408.09,294.42,329.78,430.82,348.16z M282.13,2.46l-84.41,146.22c46.78-21.08,95.99-37.72,143.4-44.05L282.13,2.46z"></path>
</svg></svg> <!----></g></g> <g transform="translate(67,6.282587051391602)"><g data-gra="path-name" fill-rule="" class="tp-name iconsvg-namesvg" transform="translate(0,0)"><g transform="scale(1)"><g><path d="M31.53 2.46L31.53 2.46Q31.04 2.46 30.41 2.32L30.41 2.32Q20.96 0.11 17.35-6L17.35-6Q16.22-5.3 13.45-4.18L13.45-4.18 13.45-0.56Q19.63-1.3 19.91-1.3L19.91-1.3Q21.35-1.3 21.35-0.25L21.35-0.25Q21.35 0.53 19.73 0.77L19.73 0.77Q7.73 2.32 6.71 2.32L6.71 2.32Q5.97 2.32 5.64 1.98 5.3 1.65 5.3 1.16L5.3 1.16Q5.3 0.32 6.85 0.18L6.85 0.18Q7.97 0.04 9.17-0.07L9.17-0.07 9.17-2.67Q7.23-2.07 4.32-1.55L4.32-1.55Q3.97-1.47 3.65-1.47L3.65-1.47Q2.46-1.47 1.86-2.32L1.86-2.32Q1.76-2.46 1.76-2.6L1.76-2.6Q1.76-3.06 3.16-3.27L3.16-3.27Q8.71-4.35 13.77-6.5L13.77-6.5 3.51-6.5Q1.76-6.5 1.76-7.44L1.76-7.44Q1.76-8.36 3.51-8.36L3.51-8.36 10.36-8.36 10.36-10.39 6.04-10.39Q4.39-10.39 4.39-11.2L4.39-11.2Q4.39-12.01 6.04-12.01L6.04-12.01 10.36-12.01 10.36-13.94 4.88-13.94Q3.2-13.94 3.2-14.78L3.2-14.78Q3.2-15.63 4.88-15.63L4.88-15.63 10.36-15.63 10.36-17.38 7.8-17.38Q6.29-17.38 5.58-18.08 4.88-18.79 4.88-19.45L4.88-19.45 4.88-21.1Q4.88-21.77 5.58-22.47 6.29-23.18 7.8-23.18L7.8-23.18 13.94-23.18Q15.45-23.18 16.15-22.47 16.86-21.77 16.86-21.1L16.86-21.1 16.86-19.21Q16.86-18.65 16.22-18.01 15.59-17.38 14.71-16.96L14.71-16.96 14.71-15.63 20.61-15.63 20.61-17.38 20.16-17.38Q18.68-17.38 18.68-18.01L18.68-18.01 18.68-21.1Q18.68-21.77 19.38-22.47 20.09-23.18 21.6-23.18L21.6-23.18 27.81-23.18Q29.32-23.18 30.02-22.47 30.73-21.77 30.73-21.1L30.73-21.1 30.73-19.45Q30.73-18.79 30.02-18.08 29.32-17.38 27.81-17.38L27.81-17.38 25.04-17.38 25.04-15.63 30.73-15.63Q32.41-15.63 32.41-14.78L32.41-14.78Q32.41-13.94 30.73-13.94L30.73-13.94 25.04-13.94 25.04-12.01 29.53-12.01Q31.18-12.01 31.18-11.2L31.18-11.2Q31.18-10.39 29.53-10.39L29.53-10.39 25.04-10.39 25.04-8.36 32.06-8.36Q33.82-8.36 33.82-7.44L33.82-7.44Q33.82-6.5 32.06-6.5L32.06-6.5 21-6.5Q22.82-4.14 24.23-3.16L24.23-3.16Q25.63-3.79 27.78-5.16L27.78-5.16Q28.51-5.62 29.22-5.62L29.22-5.62Q30.06-5.62 30.83-4.95L30.83-4.95Q31.08-4.74 31.08-4.53L31.08-4.53Q31.08-4.21 30.59-3.93L30.59-3.93Q29.11-3.16 26.3-1.86L26.3-1.86Q29.25-0.46 31.92 0.14L31.92 0.14Q33.75 0.46 33.75 1.09L33.75 1.09Q33.75 1.26 33.61 1.47L33.61 1.47Q32.94 2.46 31.53 2.46ZM14.71-8.36L20.61-8.36 20.61-10.39 14.71-10.39 14.71-8.36ZM14.71-12.01L20.61-12.01 20.61-13.94 14.71-13.94 14.71-12.01ZM9.2-18.89L12.47-18.89Q12.68-18.89 12.68-20.3L12.68-20.3Q12.68-21.67 12.47-21.67L12.47-21.67 9.2-21.67Q8.99-21.67 8.99-20.3L8.99-20.3Q8.99-18.89 9.2-18.89L9.2-18.89ZM22.97-18.89L26.3-18.89Q26.51-18.89 26.51-20.3L26.51-20.3Q26.51-21.67 26.3-21.67L26.3-21.67 22.97-21.67Q22.75-21.67 22.75-20.3L22.75-20.3Q22.75-18.89 22.97-18.89L22.97-18.89ZM31.46-24.97L31.46-24.97 4.07-24.97Q2.32-24.97 2.32-25.91L2.32-25.91Q2.32-26.83 4.07-26.83L4.07-26.83 15.49-26.83 15.49-27.85Q15.49-29.25 17.73-29.25L17.73-29.25Q19.98-29.25 19.98-27.85L19.98-27.85 19.98-26.83 31.46-26.83Q33.22-26.83 33.22-25.91L33.22-25.91Q33.22-24.97 31.46-24.97ZM40.94 2.46L40.94 2.46Q38.8 2.46 38.8 1.19L38.8 1.19 38.8-25.74Q38.8-26.41 39.5-27.11 40.21-27.81 41.72-27.81L41.72-27.81 48.32-27.81Q50.14-27.81 50.6-27.11L50.6-27.11Q50.85-26.72 50.85-26.23L50.85-26.23Q50.85-25.88 50.71-25.46L50.71-25.46Q49.51-22.05 47.3-17.8L47.3-17.8Q51.13-14.12 51.2-10.5L51.2-10.5Q51.2-7.66 49.55-6.53L49.55-6.53Q48.11-5.55 45.33-5.55L45.33-5.55Q42.88-5.69 42.88-7.16L42.88-7.16Q42.88-7.37 43.02-7.51L43.02-7.51Q43.68-8.04 45.12-8.04L45.12-8.04 45.4-8.04Q46.91-8.04 46.91-10.85L46.91-10.85Q46.91-13.59 44.88-16.12L44.88-16.12Q43.79-17.31 43.79-18.22L43.79-18.22Q43.79-18.54 43.89-18.82L43.89-18.82Q45.12-21.63 46.46-25.32L46.46-25.32 43.26-25.32Q43.05-25.32 43.05-24.26L43.05-24.26 43.05 1.19Q43.05 2.46 40.94 2.46ZM65.84-0.32L65.84-0.32 54.67-0.32Q53.16-0.32 52.46-1.02 51.76-1.72 51.76-2.39L51.76-2.39 51.76-25.11Q51.76-25.77 52.46-26.48 53.16-27.18 54.67-27.18L54.67-27.18 65.84-27.18Q67.35-27.18 68.05-26.48 68.76-25.77 68.76-25.11L68.76-25.11 68.76-2.39Q68.76-1.72 68.05-1.02 67.35-0.32 65.84-0.32ZM56.39-2.95L64.01-2.95Q64.23-2.95 64.23-4L64.23-4 64.23-12.82 56.18-12.82 56.18-4Q56.18-2.95 56.39-2.95L56.39-2.95ZM56.18-15.42L64.23-15.42 64.23-23.49Q64.23-24.55 64.01-24.55L64.01-24.55 56.39-24.55Q56.18-24.55 56.18-23.49L56.18-23.49 56.18-15.42ZM76.59-13.91L76.59-13.91Q75.53-13.91 74.62-15.03L74.62-15.03Q74.34-15.35 74.34-15.66L74.34-15.66Q74.34-16.22 75.18-16.82L75.18-16.82Q76.16-17.56 78.73-21.02 81.29-24.48 82.1-26.65L82.1-26.65Q82.77-28.41 84.21-28.41L84.21-28.41Q84.77-28.41 85.47-28.13L85.47-28.13Q86.91-27.57 86.91-26.62L86.91-26.62Q86.91-26.34 86.8-26.06L86.8-26.06Q85.08-21.84 82.68-19.16 80.27-16.47 78.83-15.06L78.83-15.06Q77.64-13.91 76.59-13.91ZM103.31-13.73L103.31-13.73Q102.99-13.73 102.36-14.27 101.73-14.82 100.85-15.8 99.97-16.79 97.6-19.47 95.23-22.16 93.34-26.09L93.34-26.09Q93.16-26.44 93.16-26.76L93.16-26.76Q93.16-27.57 94.28-28.13L94.28-28.13Q94.95-28.44 95.51-28.44L95.51-28.44Q96.85-28.44 97.62-26.69L97.62-26.69Q98.39-25.11 101.2-21.54 104.01-17.98 104.92-17.28L104.92-17.28Q105.66-16.71 105.66-16.08L105.66-16.08Q105.66-15.59 105.2-15.06L105.2-15.06Q104.12-13.73 103.31-13.73ZM76.83 2.42L76.83 2.42Q75.43 2.42 75.01 1.12L75.01 1.12 74.97 0.84Q74.97 0.04 76.69-0.53L76.69-0.53Q79.43-1.44 81.96-5.06L81.96-5.06Q84-8.04 84.63-12.89L84.63-12.89Q84.63-13.03 81.22-13.45L81.22-13.45Q78.48-13.45 78.48-14.85L78.48-14.85Q78.48-16.26 81.22-16.26L81.22-16.26 98.71-16.26Q101.41-16.26 101.41-14.47L101.41-14.47 101.41-14.36Q101.1-7.06 100.66-3.74 100.22-0.42 100.15-0.35L100.15-0.35 98.74 1.3Q97.9 2.25 93.3 2.25L93.3 2.25 91.83 2.21Q89.23 2.07 89.23 0.81L89.23 0.81Q89.23-0.6 90.28-0.6L90.28-0.6Q90.35-0.6 90.91-0.56 91.47-0.53 94.28-0.53L94.28-0.53Q94.81-0.53 95.27-1.02L95.27-1.02Q96.18-1.86 96.71-13.03L96.71-13.03 97.16-13.45 89.37-13.03Q89.33-13.03 89.33-13.13L89.33-13.13Q87.75-1.26 78.66 2.04L78.66 2.04Q77.6 2.42 76.83 2.42ZM112.47 2.04L112.47 2.04Q111.63 2.04 110.61 1.42 109.59 0.81 109.59 0.53L109.59 0.53Q109.59 0.25 109.95-0.21L109.95-0.21Q112.75-4.25 114.69-9.13L114.69-9.13Q115.18-10.43 116.48-10.43L116.48-10.43Q117.18-10.43 118.09-10.08L118.09-10.08Q119.29-9.59 119.29-8.92L119.29-8.92Q119.29-8.71 118.69-7.44L118.69-7.44Q119.64-5.48 120.09-4.95L120.09-4.95Q123.22-7.13 127.33-11.24L127.33-11.24Q131.3-15.2 134.42-19.77L134.42-19.77 113.53-19.77Q111.31-19.77 111.31-21.17L111.31-21.17Q111.31-22.54 113.53-22.54L113.53-22.54 123.5-22.54 123.5-27.78Q123.5-29.22 125.82-29.22L125.82-29.22Q128.1-29.22 128.1-27.78L128.1-27.78 128.1-22.54 137.16-22.54Q139.09-22.54 139.44-21.95L139.44-21.95Q139.62-21.67 139.62-21.35L139.62-21.35Q139.62-21 139.41-20.61L139.41-20.61Q133.33-10.32 122.69-2.74L122.69-2.74Q126.45-0.84 133.05-0.84L133.05-0.84 140.04-0.84Q141.58-0.84 141.83-0.49L141.83-0.49Q141.97-0.28 141.97 0L141.97 0Q141.97 0.25 141.87 0.56L141.87 0.56Q141.37 1.97 139.16 1.97L139.16 1.97 132.81 1.97Q126.55 1.97 122.8 0.63L122.8 0.63Q118.37-0.88 116.72-3.34L116.72-3.34Q115.67-1.26 114.4 0.81L114.4 0.81Q113.63 2.04 112.47 2.04ZM172.34-3.76L172.34-3.76 160.48-3.76Q158.97-3.76 158.26-4.46 157.56-5.16 157.56-5.83L157.56-5.83 157.56-17.94Q157.56-18.61 158.26-19.31 158.97-20.02 160.48-20.02L160.48-20.02 163.07-20.02 163.67-22.82 156.75-22.82Q154.79-22.82 154.79-23.95L154.79-23.95Q154.79-25.07 156.75-25.07L156.75-25.07 160.37-25.07Q159.53-26.97 158.69-28.2L158.69-28.2 158.65-28.23 159.32-28.51Q159.77-28.69 160.23-28.69L160.23-28.69Q161.18-28.69 162.3-27.88L162.3-27.88Q163.88-26.76 164.02-25.77L164.02-25.77Q164.02-25.74 163.67-25.63L163.67-25.63 162.55-25.07 167.6-25.07Q168.41-26.37 169.11-27.95L169.11-27.95Q169.64-29.11 170.94-29.11L170.94-29.11Q171.4-29.11 171.92-28.97L171.92-28.97Q173.43-28.62 173.43-27.88L173.43-27.88Q173.43-27.46 171.75-25.07L171.75-25.07 176.03-25.07Q178-25.07 178-23.95L178-23.95Q178-22.82 176.03-22.82L176.03-22.82 168.38-22.82Q167.92-21.56 167.25-20.02L167.25-20.02 172.34-20.02Q173.85-20.02 174.56-19.31 175.26-18.61 175.26-17.94L175.26-17.94 175.26-5.83Q175.26-5.16 174.56-4.46 173.85-3.76 172.34-3.76ZM162.09-5.79L170.59-5.79Q170.8-5.79 170.8-6.85L170.8-6.85 170.8-8.64 161.88-8.64 161.88-6.85Q161.88-5.79 162.09-5.79L162.09-5.79ZM161.88-10.53L170.8-10.53 170.8-13.38 161.88-13.38 161.88-10.53ZM161.88-15.2L170.8-15.2 170.8-17Q170.8-18.05 170.59-18.05L170.59-18.05 162.09-18.05Q161.88-18.05 161.88-17L161.88-17 161.88-15.2ZM165.22 2.21L165.22 2.21Q161.49 2.21 159.25 1.79L159.25 1.79Q156.58 1.33 154.58 0.11L154.58 0.11 153.03-0.98Q151.87-1.86 151.8-1.86L151.8-1.86Q151.52-1.86 150.19-0.07L150.19-0.07Q149.06 1.62 147.38 1.62L147.38 1.62Q146.29 1.62 145.59 0.63L145.59 0.63Q145.34 0.32 145.34-0.04L145.34-0.04Q145.34-0.6 145.97-1.26L145.97-1.26Q147.98-3.34 149.63-4.04L149.63-4.04 149.63-13.73Q149.63-14.78 149.41-14.78L149.41-14.78 147.59-14.78Q145.38-14.78 145.38-16.19L145.38-16.19Q145.38-17.56 147.59-17.56L147.59-17.56 151.73-17.56Q153.03-17.56 153.58-17.01 154.12-16.47 154.12-16.01L154.12-16.01 154.12-3.79 155.17-3.09Q156.02-2.46 156.58-2.11L156.58-2.11Q158.9-0.6 165.32-0.6L165.32-0.6Q170.69-0.6 175.93-1.16L175.93-1.16Q176.52-1.23 176.98-1.23L176.98-1.23Q177.93-1.23 178.19-0.93 178.45-0.63 178.45-0.18L178.45-0.18Q178.45 0.04 178.38 0.32L178.38 0.32Q178.21 1.05 177.96 1.26L177.96 1.26Q177.12 2.21 165.22 2.21ZM151.66-21.31L151.66-21.31Q151.56-21.31 150.99-21.35 150.43-21.39 149.77-22.3L149.77-22.3Q148.78-23.67 146.75-25.84L146.75-25.84Q146.43-26.13 146.43-26.44L146.43-26.44Q146.43-26.79 146.96-27.18L146.96-27.18Q147.87-27.85 148.71-27.85L148.71-27.85Q149.66-27.85 150.5-27L150.5-27Q152.58-24.97 154.01-23.25L154.01-23.25Q154.3-22.93 154.3-22.86L154.3-22.86Q154.23-22.58 153.56-22.05L153.56-22.05Q152.58-21.31 151.66-21.31Z" transform="translate(-1.7599999904632568, 29.25)"></path></g> <!----> <!----> <!----> <!----> <!----> <!----> <!----></g></g> <g data-gra="path-slogan" fill-rule="" class="tp-slogan iconsvg-slogansvg" fill="#f29600" transform="translate(16.974998474121094,37.709999084472656)"><!----> <!----> <g transform="scale(1, 1)"><g transform="scale(1)"><path d="M7.64-8.58L4.73-4.41L7.78 0L6.33 0L3.98-3.52L1.64 0L0.23 0L3.33-4.41L0.42-8.58L1.88-8.58L4.03-5.30L6.23-8.58L7.64-8.58ZM9.05-8.58L10.22-8.58L10.22 0L9.05 0L9.05-8.58ZM17.86 0L17.02-2.48L13.55-2.48L12.66 0L11.48 0L14.72-8.58L16.03-8.58L19.13 0L17.86 0ZM15.28-7.31L13.92-3.52L16.59-3.52L15.33-7.31L15.28-7.31ZM21.56-8.58L25.88-1.64L25.88-8.58L27-8.58L27 0L25.69 0L21.33-6.94L21.28-6.94L21.28 0L20.16 0L20.16-8.58L21.56-8.58ZM35.20-3.61L32.58-3.61L32.58-4.59L36.33-4.59L36.33 0L35.58 0L35.30-1.08Q34.31 0.09 32.48 0.14L32.48 0.14Q30.75 0.14 29.81-0.75L29.81-0.75Q28.41-2.06 28.45-4.36L28.45-4.36Q28.78-8.63 32.53-8.81L32.53-8.81Q35.72-8.63 36.19-6L36.19-6L35.06-6Q34.59-7.78 32.48-7.83L32.48-7.83Q29.81-7.64 29.67-4.31L29.67-4.31Q29.67-0.75 32.53-0.75L32.53-0.75Q33.56-0.75 34.31-1.31L34.31-1.31Q35.25-2.06 35.20-3.61L35.20-3.61ZM45.05-8.58L41.81-3.47L41.81 0L40.64 0L40.64-3.47L37.41-8.58L38.77-8.58L41.20-4.45L43.69-8.58L45.05-8.58ZM51.75 0L50.91-2.48L47.44-2.48L46.55 0L45.38 0L48.61-8.58L49.92-8.58L53.02 0L51.75 0ZM49.17-7.31L47.81-3.52L50.48-3.52L49.22-7.31L49.17-7.31ZM55.45-8.58L59.77-1.64L59.77-8.58L60.89-8.58L60.89 0L59.58 0L55.22-6.94L55.17-6.94L55.17 0L54.05 0L54.05-8.58L55.45-8.58ZM69.09-3.61L66.47-3.61L66.47-4.59L70.22-4.59L70.22 0L69.47 0L69.19-1.08Q68.20 0.09 66.38 0.14L66.38 0.14Q64.64 0.14 63.70-0.75L63.70-0.75Q62.30-2.06 62.34-4.36L62.34-4.36Q62.67-8.63 66.42-8.81L66.42-8.81Q69.61-8.63 70.08-6L70.08-6L68.95-6Q68.48-7.78 66.38-7.83L66.38-7.83Q63.70-7.64 63.56-4.31L63.56-4.31Q63.56-0.75 66.42-0.75L66.42-0.75Q67.45-0.75 68.20-1.31L68.20-1.31Q69.14-2.06 69.09-3.61L69.09-3.61ZM80.86-3.89L76.64-3.89L76.64 0L75.47 0L75.47-8.58L81.42-8.58L81.42-7.59L76.64-7.59L76.64-4.92L80.86-4.92L80.86-3.89ZM83.91-1.03L89.06-1.03L89.06 0L82.73 0L82.73-8.58L88.97-8.58L88.97-7.59L83.91-7.59L83.91-4.92L88.59-4.92L88.59-3.89L83.91-3.89L83.91-1.03ZM91.97-8.58L96.28-1.64L96.28-8.58L97.41-8.58L97.41 0L96.09 0L91.73-6.94L91.69-6.94L91.69 0L90.56 0L90.56-8.58L91.97-8.58ZM100.03-1.03L105.33-1.03L105.33 0L98.58 0L98.58-0.94L103.83-7.59L98.95-7.59L98.95-8.58L105.33-8.58L105.33-7.59L100.03-1.03ZM107.63-5.06L112.13-5.06L112.13-8.58L113.30-8.58L113.30 0L112.13 0L112.13-3.98L107.63-3.98L107.63 0L106.45 0L106.45-8.58L107.63-8.58L107.63-5.06ZM115.27-8.58L116.44-8.58L116.44 0L115.27 0L115.27-8.58ZM121.92 0L118.45 0L118.45-8.58L121.97-8.58Q125.44-8.39 125.58-4.41L125.58-4.41Q125.39-0.09 121.92 0L121.92 0ZM121.78-7.64L119.63-7.64L119.63-0.98L121.88-0.98Q124.31-1.13 124.41-4.31L124.41-4.31Q124.36-7.55 121.78-7.64L121.78-7.64ZM132.70 0L131.86-2.48L128.39-2.48L127.50 0L126.33 0L129.56-8.58L130.88-8.58L133.97 0L132.70 0ZM130.13-7.31L128.77-3.52L131.44-3.52L130.17-7.31L130.13-7.31ZM141.80-4.27L141.80-4.27Q141.61-7.64 138.80-7.83L138.80-7.83Q135.94-7.69 135.80-4.27L135.80-4.27Q135.94-0.94 138.80-0.80L138.80-0.80Q141.61-0.98 141.80-4.27ZM142.97-4.27L142.97-4.27Q142.69 0 138.80 0.14L138.80 0.14Q134.86 0 134.58-4.27L134.58-4.27Q134.81-8.72 138.80-8.81L138.80-8.81Q142.69-8.67 142.97-4.27Z" transform="translate(-0.234375, 8.8125)"></path></g></g></g></g></g><defs v-gra="od"></defs></svg>